HIERARCHY
ROOT Hips
{
  OFFSET 54.5205 85.7129 14.9015
  CHANNELS 6 Xposition Yposition Zposition Zrotation Xrotation Yrotation
  JOINT spine
  {
    OFFSET 0 6.3926 0.367606
    CHANNELS 3 Zrotation Xrotation Yrotation
    JOINT spine1
    {
      OFFSET 0 9.17611 0
      CHANNELS 3 Zrotation Xrotation Yrotation
      JOINT spine2
      {
        OFFSET 0 8.79238 0
        CHANNELS 3 Zrotation Xrotation Yrotation
        JOINT Neck
        {
          OFFSET 0 22.5737 1.07624
          CHANNELS 3 Zrotation Xrotation Yrotation
          JOINT Head
          {
            OFFSET 0 6.82011 0
            CHANNELS 3 Zrotation Xrotation Yrotation
            End Site
            {
              OFFSET 0 16.5085 -5.44427
            }
          }
        }
        JOINT RightShoulder
        {
          OFFSET -3.70221 9.49509 -0.515508
          CHANNELS 3 Zrotation Xrotation Yrotation
          JOINT RightArm
          {
            OFFSET 0 12.4537 0
            CHANNELS 3 Zrotation Xrotation Yrotation
            JOINT RightArmRoll
            {
              OFFSET 0 6.28686 0
              CHANNELS 3 Zrotation Xrotation Yrotation
              JOINT RightForeArm
              {
                OFFSET 0 18.3114 0
                CHANNELS 3 Zrotation Xrotation Yrotation
                JOINT RightForeArmRoll
                {
                  OFFSET 0 7.05483 0
                  CHANNELS 3 Zrotation Xrotation Yrotation
                  JOINT RightHand
                  {
                    OFFSET 0 14.1575 0
                    CHANNELS 3 Zrotation Xrotation Yrotation
                    End Site
                    {
                      OFFSET 0 0 0
                    }
                  }
                }
              }
            }
          }
        }
        JOINT LeftShoulder
        {
          OFFSET 3.70221 9.49509 -0.515508
          CHANNELS 3 Zrotation Xrotation Yrotation
          JOINT LeftArm
          {
            OFFSET 0 12.4537 0
            CHANNELS 3 Zrotation Xrotation Yrotation
            JOINT LeftArmRoll
            {
              OFFSET 0 6.28686 0
              CHANNELS 3 Zrotation Xrotation Yrotation
              JOINT LeftForeArm
              {
                OFFSET 0 18.3114 0
                CHANNELS 3 Zrotation Xrotation Yrotation
                JOINT LeftForeArmRoll
                {
                  OFFSET 0 7.05483 0
                  CHANNELS 3 Zrotation Xrotation Yrotation
                  JOINT LeftHand
                  {
                    OFFSET 0 14.1575 0
                    CHANNELS 3 Zrotation Xrotation Yrotation
                    End Site
                    {
                      OFFSET 0 0 0
                    }
                  }
                }
              }
            }
          }
        }
      }
    }
  }
  JOINT RightUpLeg
  {
    OFFSET -5.66616 -1.03903 -0.87161
    CHANNELS 3 Zrotation Xrotation Yrotation
    JOINT RightUpLegRoll
    {
      OFFSET 0 16.6005 0
      CHANNELS 3 Zrotation Xrotation Yrotation
      JOINT RightLeg
      {
        OFFSET 0 -20.5572 0
        CHANNELS 3 Zrotation Xrotation Yrotation
        JOINT RightLegRoll
        {
          OFFSET 0 20.6244 0
          CHANNELS 3 Zrotation Xrotation Yrotation
          JOINT RightFoot
          {
            OFFSET 0 17.1664 0
            CHANNELS 3 Zrotation Xrotation Yrotation
            JOINT RightToeBase
            {
              OFFSET 0 14.3502 0
              CHANNELS 3 Zrotation Xrotation Yrotation
              End Site
              {
                OFFSET 0.00608252 6.94971 -0.801061
              }
            }
          }
        }
      }
    }
  }
  JOINT LeftUpLeg
  {
    OFFSET 5.66616 -1.03903 -0.87161
    CHANNELS 3 Zrotation Xrotation Yrotation
    JOINT LeftUpLegRoll
    {
      OFFSET 0 16.6006 0
      CHANNELS 3 Zrotation Xrotation Yrotation
      JOINT LeftLeg
      {
        OFFSET 0 20.5571 0
        CHANNELS 3 Zrotation Xrotation Yrotation
        JOINT LeftLegRoll
        {
          OFFSET 0 20.8151 0
          CHANNELS 3 Zrotation Xrotation Yrotation
          JOINT LeftFoot
          {
            OFFSET 0 16.9757 0
            CHANNELS 3 Zrotation Xrotation Yrotation
            JOINT LeftToeBase
            {
              OFFSET 0 14.3502 0
              CHANNELS 3 Zrotation Xrotation Yrotation
              End Site
              {
                OFFSET -0.0272592 6.94971 -0.801061
              }
            }
          }
        }
      }
    }
  }
}
MOTION
Frames: 5
Frame Time: 0.00208333
54.038 85.7491 14.3343 -1.87505 -3.03747 -4.64382 -0.159676 -1.09112 -0.0714127 -0.312836 1.80489 -0.127071 -0.311593 3.44994 -0.122023 7.36824 11.7759 1.92061 -5.62445 7.15065 4.1112 25.9704 -17.52 -14.7536 63.9473 39.2034 55.0061 1.39977e-005 -1.30349e-006 -1.47741e-006 171.294 63.8487 -162.461 -8.49619e-007 -6.51635e-006 -3.00952 8.0289 -4.95147 0.697713 -56.0594 0.850874 -0.929062 -111.068 13.441 -1.57262 4.44927e-006 -2.86309e-006 2.19553e-006 -10.0183 5.14615 1.00783 -5.30471e-007 -3.84496e-006 3 -8.02897 -4.95148 -0.697695 176.444 -0.958902 0.647418 180 7.0154e-015 178.892 176.524 5.66398 179.787 6.4777e-007 -6.66021e-007 0.0568448 -18.3281 67.533 19.1533 8.13649 25.2327 -3.48774 -173.26 -1.53333 -0.62374 4.54188e-006 -4.6773e-006 -1.1051 -1.05832 -7.60497 0.470147 7.89379e-007 1.71256e-006 -0.0861622 18.8253 69.2031 -20.5579 -8.13651 25.2329 3.48729 
54.0407 85.746 14.3445 -1.88602 -3.04407 -4.64954 -0.158558 -1.08981 -0.0724314 -0.31093 1.80622 -0.128094 -0.309674 3.45128 -0.123093 7.33957 11.7665 1.93401 -5.58951 7.15904 4.11679 26.0343 -17.487 -14.7055 63.9575 39.2098 55.1599 1.39977e-005 -1.30349e-006 -1.47741e-006 171.138 64.1687 -162.295 -8.49619e-007 -6.51635e-006 -3.00954 8.0289 -4.95147 0.697713 -56.0491 0.832216 -0.918375 -111.089 13.4369 -1.53576 4.44927e-006 -2.86309e-006 2.19553e-006 -10.0395 5.1745 1.01071 -5.30471e-007 -3.84496e-006 3 -8.02897 -4.95148 -0.697695 176.454 -0.965362 0.645865 180 7.0154e-015 178.892 176.519 5.66613 179.788 6.4777e-007 -6.66021e-007 0.0568139 -18.3275 67.5326 19.1532 8.13649 25.2327 -3.48774 -173.249 -1.53185 -0.629212 4.54188e-006 -4.6773e-006 -1.10481 -1.05513 -7.62718 0.471455 7.89379e-007 1.71256e-006 -0.0863922 18.827 69.2151 -20.5686 -8.13651 25.2329 3.48729 
54.0478 85.7529 14.3419 -1.8961 -3.05085 -4.65485 -0.157584 -1.08856 -0.073395 -0.309309 1.80764 -0.129067 -0.308042 3.45269 -0.124106 7.31339 11.7561 1.94674 -5.55903 7.16681 4.12225 26.098 -17.4544 -14.6582 63.9687 39.2164 55.3117 1.39977e-005 -1.30349e-006 -1.47741e-006 170.977 64.4965 -162.127 -8.49619e-007 -6.51636e-006 -3.00956 8.0289 -4.95147 0.697713 -56.0393 0.813833 -0.907793 -111.109 13.433 -1.49984 4.44927e-006 -2.86309e-006 2.19553e-006 -10.06 5.20304 1.01363 -5.30471e-007 -3.84496e-006 3 -8.02897 -4.95148 -0.697695 176.463 -0.97215 0.645103 180 7.0154e-015 178.892 176.513 5.66802 179.788 6.4777e-007 -6.66021e-007 0.0567824 -18.327 67.5322 19.1532 8.13649 25.2327 -3.48774 -173.239 -1.53083 -0.633987 4.54188e-006 -4.6773e-006 -1.10452 -1.05199 -7.64861 0.472715 7.89379e-007 1.71256e-006 -0.086637 18.8289 69.2269 -20.5789 -8.13651 25.2329 3.48729 
54.0285 85.7517 14.3365 -1.90514 -3.05787 -4.65962 -0.156791 -1.08739 -0.0742887 -0.30804 1.80915 -0.129984 -0.306763 3.4542 -0.125055 7.29038 11.7447 1.95857 -5.53398 7.17382 4.12748 26.1615 -17.4224 -14.6117 63.9814 39.2233 55.4598 1.39977e-005 -1.30349e-006 -1.47741e-006 170.812 64.8316 -161.959 -8.4962e-007 -6.51636e-006 -3.00957 8.0289 -4.95147 0.697713 -56.0301 0.795903 -0.897424 -111.128 13.4294 -1.4651 4.44927e-006 -2.86309e-006 2.19553e-006 -10.0796 5.23174 1.01657 -5.30471e-007 -3.84496e-006 3 -8.02897 -4.95148 -0.697695 176.471 -0.979341 0.645282 180 7.0154e-015 178.892 176.508 5.66962 179.789 6.4777e-007 -6.66021e-007 0.0567505 -18.3264 67.5317 19.153 8.13649 25.2327 -3.48774 -173.231 -1.53032 -0.637984 4.54188e-006 -4.6773e-006 -1.10424 -1.04895 -7.66919 0.473916 7.89379e-007 1.71256e-006 -0.0869011 18.831 69.2383 -20.5889 -8.13651 25.2329 3.48729 
54.0322 85.7457 14.3393 -1.91298 -3.06515 -4.66376 -0.156218 -1.08632 -0.0750972 -0.307192 1.81077 -0.130838 -0.305905 3.45583 -0.125931 7.27119 11.7321 1.96927 -5.51532 7.17992 4.13244 26.2246 -17.3911 -14.5662 63.9958 39.2303 55.6022 1.39977e-005 -1.30349e-006 -1.47741e-006 170.645 65.1736 -161.793 -8.4962e-007 -6.51635e-006 -3.00959 8.0289 -4.95147 0.697713 -56.0215 0.778604 -0.887376 -111.147 13.4261 -1.43178 4.44927e-006 -2.86309e-006 2.19553e-006 -10.098 5.26055 1.01953 -5.30471e-007 -3.84496e-006 3 -8.02897 -4.95148 -0.697695 176.477 -0.987011 0.646554 180 7.0154e-015 178.892 176.502 5.67089 179.79 6.4777e-007 -6.66021e-007 0.056718 -18.3258 67.5313 19.1529 8.13649 25.2327 -3.48774 -173.225 -1.53037 -0.641117 4.54188e-006 -4.6773e-006 -1.10396 -1.04606 -7.68884 0.475048 7.89379e-007 1.71256e-006 -0.0871892 18.8333 69.2492 -20.5986 -8.13651 25.2329 3.48729 
